<svg width="16" height="16" viewBox="0 0 16 16" fill="none" xmlns="http://www.w3.org/2000/svg">
  <path fill-rule="evenodd" clip-rule="evenodd" d="M5.29334 8.70666C5.10607 8.51916 5.00089 8.265 5.00089 7.99999C5.00089 7.73499 5.10607 7.48083 5.29334 7.29333L9.064 3.52133C9.2516 3.33382 9.506 3.22851 9.77124 3.22858C9.90257 3.22861 10.0326 3.25451 10.1539 3.30479C10.2753 3.35508 10.3855 3.42877 10.4783 3.52166C10.5712 3.61455 10.6448 3.72482 10.6951 3.84616C10.7453 3.96751 10.7711 4.09756 10.7711 4.2289C10.7711 4.36023 10.7452 4.49027 10.6949 4.61159C10.6446 4.73292 10.5709 4.84315 10.478 4.93599L7.41467 7.99999L10.4787 11.064C10.5742 11.1562 10.6505 11.2665 10.7029 11.3885C10.7554 11.5105 10.783 11.6417 10.7843 11.7744C10.7855 11.9072 10.7602 12.0389 10.71 12.1618C10.6598 12.2848 10.5856 12.3964 10.4917 12.4904C10.3979 12.5843 10.2863 12.6586 10.1634 12.709C10.0405 12.7593 9.90886 12.7847 9.77608 12.7836C9.6433 12.7825 9.51207 12.755 9.39004 12.7026C9.26801 12.6503 9.15763 12.5741 9.06534 12.4787L5.29201 8.70666H5.29334Z" fill="black"/>
</svg>
