<svg width="16" height="16" viewBox="0 0 16 16" fill="none" xmlns="http://www.w3.org/2000/svg">
  <path fill-rule="evenodd" clip-rule="evenodd" d="M11.793 1.79308C12.1835 1.40255 12.8165 1.40255 13.207 1.79308C13.5975 2.18361 13.5975 2.81664 13.207 3.20714L9.24707 7.16612C9.41087 7.41109 9.5 7.70109 9.5 8.00011C9.49997 8.3979 9.34183 8.77937 9.06055 9.06065C8.77925 9.34193 8.3978 9.50011 8 9.50011C7.70098 9.50011 7.41098 9.41098 7.16602 9.24718L3.20703 13.2071C2.81653 13.5976 2.18348 13.5976 1.79297 13.2071C1.40247 12.8166 1.40251 12.1836 1.79297 11.7931L2.73438 10.8507C2.53445 10.6322 2.34992 10.4134 2.18359 10.1974C1.61695 9.46074 1.33303 9.09334 1.33301 8.00011C1.33301 6.9075 1.61697 6.54012 2.18359 5.80284C3.31493 4.33353 5.21206 2.6671 8 2.6671C8.91005 2.6671 9.72477 2.84533 10.4492 3.13585L11.793 1.79308ZM8 5.50011C7.33696 5.50011 6.70126 5.76369 6.23242 6.23253C5.76363 6.70136 5.50001 7.3371 5.5 8.00011C5.5 8.02719 5.50301 8.05419 5.50391 8.08116L8.08105 5.50401C8.05406 5.50312 8.0271 5.50011 8 5.50011Z" fill="black"/>
  <path d="M12.7695 4.64366C13.1722 5.02144 13.5206 5.41873 13.8164 5.80284C14.383 6.53945 14.667 6.90683 14.667 8.00011C14.667 9.09268 14.3831 9.4614 13.8164 10.1974C12.6851 11.6667 10.7879 13.3331 8 13.3331C6.792 13.3331 5.75188 13.0192 4.86816 12.545L7.08789 10.3253C7.376 10.4383 7.68452 10.5001 8 10.5001C8.66301 10.5001 9.29874 10.2365 9.76758 9.76769C10.2364 9.29888 10.5 8.6631 10.5 8.00011C10.5 7.68466 10.4382 7.37609 10.3252 7.088L12.7695 4.64366Z" fill="black"/>
</svg>
