<svg width="16" height="16" viewBox="0 0 16 16" fill="none" xmlns="http://www.w3.org/2000/svg">
  <path d="M6.50001 8.00002C6.50001 7.6022 6.65805 7.22066 6.93935 6.93936C7.22065 6.65806 7.60219 6.50002 8.00001 6.50002C8.39783 6.50002 8.77937 6.65806 9.06067 6.93936C9.34198 7.22066 9.50001 7.6022 9.50001 8.00002C9.50001 8.39785 9.34198 8.77938 9.06067 9.06068C8.77937 9.34198 8.39783 9.50002 8.00001 9.50002C7.60219 9.50002 7.22065 9.34198 6.93935 9.06068C6.65805 8.77938 6.50001 8.39785 6.50001 8.00002Z" fill="black"/>
  <path fill-rule="evenodd" clip-rule="evenodd" d="M1.33334 8.00002C1.33334 9.09335 1.61668 9.46069 2.18334 10.1974C3.31468 11.6667 5.21201 13.3334 8.00001 13.3334C10.788 13.3334 12.6853 11.6667 13.8167 10.1974C14.3833 9.46135 14.6667 9.09269 14.6667 8.00002C14.6667 6.90669 14.3833 6.53935 13.8167 5.80269C12.6853 4.33335 10.788 2.66669 8.00001 2.66669C5.21201 2.66669 3.31468 4.33335 2.18334 5.80269C1.61668 6.54002 1.33334 6.90735 1.33334 8.00002ZM8.00001 5.50002C7.33697 5.50002 6.70108 5.76341 6.23224 6.23225C5.7634 6.70109 5.50001 7.33698 5.50001 8.00002C5.50001 8.66306 5.7634 9.29895 6.23224 9.76779C6.70108 10.2366 7.33697 10.5 8.00001 10.5C8.66305 10.5 9.29894 10.2366 9.76778 9.76779C10.2366 9.29895 10.5 8.66306 10.5 8.00002C10.5 7.33698 10.2366 6.70109 9.76778 6.23225C9.29894 5.76341 8.66305 5.50002 8.00001 5.50002Z" fill="black"/>
</svg>
